<svg width="19" height="16" viewBox="0 0 19 16" fill="none" xmlns="http://www.w3.org/2000/svg">
<path d="M10.9359 2.28931L10.9355 2.28977L10.2044 3.01476L9.50027 3.71309L8.79611 3.01476L8.06507 2.28977L8.0639 2.28861C6.52508 0.757484 4.07388 0.559393 2.47921 1.86698C0.610444 3.40228 0.513287 6.14854 2.18226 7.80956C2.18241 7.80971 2.18255 7.80985 2.18269 7.80999L9.3626 14.945C9.43649 15.0183 9.56034 15.0183 9.63424 14.945L16.8146 7.80956L16.8148 7.80936C18.487 6.1485 18.3902 3.40262 16.5216 1.86723L10.9359 2.28931ZM10.9359 2.28931C12.4791 0.756882 14.9272 0.559704 16.5215 1.86708L10.9359 2.28931Z" stroke="black" stroke-width="2"/>
</svg>
