<svg width="82" height="97" viewBox="0 0 82 97" fill="none" xmlns="http://www.w3.org/2000/svg">
<path d="M10.7816 86.3165H72.8814V86.7112H10.7816V86.3165ZM22.1913 92.2283C22.1518 92.0307 22.0892 91.8506 22.0058 91.6928C21.9225 91.5355 21.8053 91.3819 21.6574 91.2366C21.4439 91.0277 21.1903 90.8622 20.9112 90.7496C20.3482 90.5226 19.6915 90.5226 19.1275 90.7496C18.8487 90.8622 18.5953 91.0277 18.3819 91.2366C18.2351 91.3814 18.1179 91.5343 18.0335 91.6928C17.9496 91.8511 17.8872 92.0311 17.848 92.2283C17.8096 92.4192 17.7868 92.6462 17.7801 92.9019C17.7741 93.1975 17.7713 93.4932 17.7718 93.7889C17.7718 94.1318 17.7746 94.429 17.7801 94.681C17.7868 94.9396 17.8096 95.1681 17.848 95.3585C17.8874 95.5566 17.9496 95.7352 18.034 95.8908C18.1184 96.0464 18.2356 96.1982 18.3819 96.3415C18.595 96.5507 18.8485 96.7164 19.1275 96.8289C19.4106 96.9427 19.7138 97.0008 20.0198 96.9998C20.3311 96.9998 20.6312 96.9421 20.9118 96.8289C21.1908 96.7164 21.4443 96.5507 21.6574 96.3415C21.8047 96.1972 21.9219 96.0455 22.0053 95.8908C22.0886 95.7363 22.1519 95.5566 22.1913 95.3592C22.2309 95.1642 22.2534 94.9362 22.2592 94.681C22.2648 94.429 22.2681 94.1318 22.2681 93.7889C22.2681 93.4461 22.2648 93.1507 22.2592 92.9019C22.2536 92.6495 22.2309 92.423 22.1913 92.2283ZM21.5575 93.7889C21.5575 94.1123 21.5536 94.3881 21.5448 94.6183C21.5369 94.8398 21.5168 95.0356 21.4858 95.1995C21.4556 95.3551 21.4107 95.4912 21.3529 95.6032C21.29 95.7202 21.209 95.827 21.1128 95.9198C20.9702 96.06 20.7998 96.1702 20.6122 96.2436C20.2315 96.3915 19.8076 96.3915 19.427 96.2436C19.2391 96.1705 19.0687 96.0603 18.9263 95.9198C18.8301 95.827 18.7491 95.7202 18.6862 95.6032C18.6273 95.4912 18.5833 95.3551 18.5533 95.1995C18.5226 95.0393 18.5028 94.8434 18.4944 94.6177C18.4855 94.388 18.4811 94.1122 18.4811 93.7887C18.4811 93.4654 18.4855 93.1901 18.4944 92.9604C18.5028 92.734 18.5226 92.5386 18.5533 92.3793C18.5833 92.2237 18.6273 92.0869 18.6862 91.9749C18.7444 91.8634 18.8257 91.7568 18.9263 91.6583C19.0692 91.5184 19.2395 91.4083 19.427 91.3345C19.8072 91.1849 20.2318 91.1849 20.612 91.3345C20.7996 91.408 20.97 91.5181 21.1126 91.6583C21.2091 91.7508 21.2902 91.8577 21.3528 91.9749C21.4105 92.0864 21.4555 92.2225 21.4856 92.3793C21.5162 92.5425 21.5367 92.7374 21.5446 92.9604C21.5535 93.1905 21.5575 93.4658 21.5575 93.7889ZM28.3929 93.5636C28.6708 93.2612 28.8117 92.8627 28.8117 92.3789C28.8117 92.1019 28.7629 91.8516 28.6668 91.6328C28.57 91.4118 28.4333 91.2257 28.2605 91.0776C28.0894 90.9318 27.8849 90.8185 27.6526 90.7424C27.4233 90.6674 27.1743 90.6298 26.9126 90.6298H24.4286V96.9486H25.1383V94.1455H26.6564L28.1395 96.9486H28.9596L27.4409 94.1029C27.8298 94.0099 28.1494 93.8293 28.3929 93.5636ZM25.1383 91.2742H26.8508C27.0353 91.2742 27.2087 91.2966 27.3675 91.3422C27.5199 91.3857 27.6516 91.4542 27.7599 91.5457C27.8683 91.6359 27.9505 91.7483 28.0106 91.8863C28.0718 92.0256 28.1016 92.1938 28.1016 92.3877C28.1016 92.582 28.0717 92.7495 28.011 92.8884C27.9503 93.0272 27.8683 93.1392 27.7588 93.2306C27.6516 93.3215 27.5192 93.3896 27.3675 93.4332C27.2104 93.4789 27.0366 93.5016 26.8508 93.5016H25.1383V91.2742ZM30.7661 90.6298H31.4769V96.9486H30.7661V90.6298ZM34.348 92.3795C34.3774 92.2239 34.4219 92.0871 34.4808 91.9751C34.5434 91.8578 34.6245 91.751 34.721 91.6584C34.8638 91.5185 35.0341 91.4083 35.2216 91.3346C35.4099 91.2605 35.611 91.2224 35.814 91.2224C36.2068 91.2224 36.5306 91.3334 36.8053 91.5621C37.0771 91.7896 37.2594 92.1042 37.3465 92.498L37.3671 92.59H38.0756L38.0515 92.4534C38.0034 92.1747 37.9122 91.9161 37.7816 91.6854C37.6547 91.4604 37.4873 91.2597 37.2876 91.0928C37.089 90.9294 36.8627 90.8012 36.619 90.714C36.1039 90.5272 35.4643 90.5311 34.922 90.7494C34.6431 90.862 34.3897 91.0275 34.1764 91.2364C34.0297 91.3813 33.9124 91.5341 33.8275 91.6926C33.7436 91.8509 33.6819 92.0309 33.6423 92.2281C33.6034 92.4191 33.5805 92.646 33.5739 92.9017C33.5679 93.1973 33.5651 93.493 33.5655 93.7887C33.5655 94.1316 33.5683 94.4288 33.5739 94.6808C33.5805 94.9394 33.6034 95.1679 33.6423 95.3583C33.6819 95.5564 33.7439 95.7351 33.8283 95.8906C33.9122 96.0462 34.0296 96.198 34.1762 96.3413C34.3893 96.5506 34.6427 96.7163 34.9218 96.8287C35.2048 96.9426 35.5079 97.0006 35.8138 96.9997C36.1434 96.9997 36.4618 96.9344 36.7606 96.8058C37.0546 96.6807 37.3177 96.4951 37.5319 96.2616C37.7298 96.057 37.8709 95.8256 37.952 95.5759C38.031 95.3325 38.0706 95.0414 38.0706 94.7116V93.6036H35.6943V94.2477H37.3608V94.6778C37.3608 94.9271 37.3331 95.1431 37.2785 95.3189C37.2223 95.4968 37.132 95.6627 37.0124 95.8076C36.8674 95.9833 36.6821 96.1231 36.4717 96.2158C36.2759 96.3025 36.0643 96.3497 35.8495 96.3545C35.6346 96.3593 35.421 96.3216 35.2214 96.2436C35.0336 96.1706 34.8631 96.0604 34.7208 95.9198C34.6245 95.8271 34.5435 95.7203 34.4807 95.6032C34.4217 95.4912 34.3773 95.3551 34.3478 95.1995C34.3173 95.0393 34.2972 94.8434 34.2883 94.6177C34.2794 94.388 34.2756 94.1122 34.2756 93.7887C34.2756 93.4654 34.2794 93.1901 34.2883 92.9604C34.2974 92.7343 34.3175 92.539 34.348 92.3795ZM40.0483 90.6298H40.7586V96.9486H40.0483V90.6298ZM47.2665 95.6328L43.864 90.6298H43.2101V96.9486H43.9198V91.93L47.3226 96.9486H47.9772V90.6298H47.2665V95.6328ZM52.3666 90.6298H51.7805L49.4064 96.9486H50.1679L50.7092 95.4695H53.4375L53.978 96.9486H54.7399L52.395 90.7065L52.3666 90.6298ZM53.2034 94.8258H50.943L52.073 91.7114L53.2034 94.8258ZM56.9267 90.6298H56.2165V96.9486H60.2245V96.3044H56.9267V90.6298ZM65.6635 94.4757C65.5643 94.2629 65.4176 94.0747 65.234 93.925C65.1663 93.8706 65.0952 93.8205 65.0211 93.7749C64.9414 93.7266 64.8572 93.6861 64.7695 93.654C64.6685 93.6172 64.5648 93.5883 64.4593 93.5674C64.3297 93.541 64.1994 93.5179 64.0686 93.4979L63.3987 93.3954C63.2323 93.3679 63.0695 93.3228 62.9131 93.261C62.7591 93.2002 62.6307 93.1271 62.5313 93.0443C62.3423 92.8899 62.2508 92.658 62.2508 92.338C62.2508 91.9814 62.3626 91.7088 62.5906 91.5047C62.8201 91.3007 63.1499 91.1972 63.5705 91.1972C63.7488 91.1972 63.9084 91.2108 64.0449 91.2375C64.1811 91.2641 64.3058 91.3005 64.4141 91.3462C64.5199 91.3894 64.6205 91.4438 64.7142 91.5085C64.811 91.5749 64.9069 91.6504 65.0012 91.7317L65.0853 91.8046L65.5608 91.3387L65.464 91.2561C65.1874 91.0219 64.9044 90.8489 64.6218 90.7405C64.3388 90.6333 63.9937 90.5784 63.5966 90.5784C62.9703 90.5784 62.4679 90.739 62.1038 91.0568C61.736 91.378 61.5493 91.8166 61.5493 92.3619C61.5493 92.8745 61.7277 93.2817 62.0788 93.5701C62.3622 93.8111 62.7549 93.9701 63.2463 94.0413L63.9734 94.1535C64.0971 94.1692 64.201 94.1871 64.2847 94.2063C64.3675 94.2254 64.4409 94.246 64.5037 94.2667C64.5616 94.2862 64.612 94.3108 64.656 94.3396C64.706 94.3717 64.7581 94.4091 64.8082 94.4484C65.0105 94.6264 65.1083 94.8779 65.1083 95.2157C65.1083 95.5805 64.9839 95.8536 64.7271 96.0512C64.4648 96.2532 64.0957 96.3555 63.6311 96.3555C63.4524 96.3555 63.2868 96.3446 63.1384 96.3229C62.9969 96.3019 62.8585 96.2643 62.7263 96.2108C62.5913 96.1552 62.4633 96.0848 62.3446 96.0008C62.2206 95.9154 62.0895 95.8049 61.9533 95.672L61.8689 95.5894L61.369 96.0792L61.4534 96.1618C61.5917 96.298 61.7415 96.4225 61.9012 96.5341C62.0554 96.6404 62.2215 96.7293 62.396 96.7992C62.5694 96.8676 62.7573 96.9189 62.9528 96.951C63.1469 96.9836 63.3663 97 63.6053 97C64.2828 97 64.8256 96.8379 65.2173 96.5189C65.6168 96.1951 65.819 95.7506 65.819 95.1966C65.8192 94.9356 65.7671 94.6923 65.6635 94.4757ZM80.7798 61.5116C80.7798 61.3308 80.6963 61.1655 80.5711 61.1023C80.4236 61.0236 80.2788 61 80.0902 61H79.234V62.9047H79.4837V62.0242H79.9254L80.4893 62.9047H80.7816L80.1948 62.0242C80.5069 62.0242 80.7798 61.9024 80.7798 61.5116ZM79.8609 61.8414H79.4846V61.1655H80.0298C80.3003 61.1655 80.5519 61.2046 80.5519 61.5116C80.5519 61.9024 80.1113 61.8414 79.8609 61.8414Z" fill="white"/>
<path d="M79.5333 60.0101H79.5123C78.5678 60.0108 77.8032 60.7746 77.8039 61.7136C77.8039 62.6675 78.554 63.4546 79.5333 63.4551C80.494 63.4551 81.2641 62.6681 81.2641 61.7136C81.2643 60.7797 80.4942 60.0101 79.5333 60.0101ZM79.5326 63.2464C78.6969 63.2464 77.9911 62.5636 77.9911 61.7135C77.9911 60.8845 78.6971 60.2181 79.5326 60.2181C80.3595 60.2224 81.0298 60.8893 81.0348 61.7135C81.0348 62.5636 80.3466 63.2464 79.5326 63.2464ZM33.137 63.6019H36.2317V60.0492H33.137V63.6019ZM33.137 78.6764H36.2317V64.575H33.137V78.6764ZM64.8624 65.9313C63.7089 65.0713 62.2487 64.5566 60.6713 64.5566C56.7124 64.5566 53.5045 67.7466 53.5045 71.664C53.5045 75.6008 56.7124 78.7911 60.6713 78.7911C62.2485 78.7911 63.7086 78.2943 64.8624 77.4151L64.9002 78.6763H67.9741V64.5748H64.8624V65.9313ZM60.7617 75.6329H60.7456C58.5393 75.6329 56.7717 73.8765 56.7717 71.6642C56.7717 69.4706 58.5393 67.6965 60.7456 67.6965C62.9325 67.6965 64.7209 69.4706 64.7209 71.6642C64.7305 73.8468 62.9577 75.624 60.7617 75.6329ZM76.2554 70.06C75.6222 70.0204 73.0282 69.8868 73.0282 68.3765C73.0282 67.3651 74.7401 67.0993 75.5264 67.0993C77.0228 67.0993 77.9661 67.9371 78.1396 69.1051L81.2516 69.0829C81.1768 66.3523 78.7748 64.4795 75.604 64.497C71.779 64.519 69.8377 66.4665 69.8377 68.9317C69.8377 70.3063 70.6068 71.1099 71.5085 71.8164C72.315 72.4842 74.2589 72.8304 75.2753 72.9447C77.083 73.1351 78.3315 73.4228 78.3315 74.7597C78.3315 75.6008 77.1189 76.325 75.4115 76.325C74.4684 76.325 72.7961 75.7333 72.624 74.1458H69.5681C69.9339 77.5119 72.7002 79 75.4302 79C76.6614 79 78.6785 78.714 79.659 78.0075C80.8107 77.1664 81.6179 75.9833 81.6179 74.3965C81.6181 72.2571 80.4082 70.442 76.2554 70.06ZM12.1393 65.9313C10.986 65.0713 9.52541 64.5566 7.94842 64.5566C3.98931 64.5566 0.781555 67.7466 0.781555 71.664C0.781555 75.6008 3.98931 78.7911 7.94842 78.7911C9.52541 78.7911 10.9855 78.2943 12.1393 77.4151L12.1771 78.6763H15.2512V64.5748H12.1393V65.9313ZM8.03872 75.6329H8.02272C5.81635 75.6329 4.04865 73.8765 4.04865 71.6642C4.04865 69.4706 5.81635 67.6965 8.02272 67.6965C10.2096 67.6965 11.998 69.4706 11.998 71.6642C12.0072 73.8468 10.2346 75.624 8.03872 75.6329ZM49.0804 60.0665V65.9313C47.927 65.0713 46.4664 64.5566 44.8896 64.5566C40.9305 64.5566 37.7227 67.7466 37.7227 71.664C37.7227 75.6008 40.9305 78.7911 44.8896 78.7911C46.4664 78.7911 47.9263 78.2943 49.0804 77.4151L49.1182 78.6763H52.192V60.0664L49.0804 60.0665ZM44.9799 75.6329H44.9637C42.7573 75.6329 40.9896 73.8765 40.9896 71.6642C40.9896 69.4706 42.7573 67.6965 44.9637 67.6965C47.1506 67.6965 48.939 69.4706 48.939 71.6642C48.9482 73.8468 47.1754 75.624 44.9799 75.6329ZM28.0089 60.0665V65.9313C26.8557 65.0713 25.3951 64.5566 23.8181 64.5566C19.859 64.5566 16.6512 67.7466 16.6512 71.664C16.6512 75.6008 19.8591 78.7911 23.8181 78.7911C25.3949 78.7911 26.855 78.2943 28.0089 77.4151L28.0467 78.6763H31.1208V60.0664L28.0089 60.0665ZM23.9084 75.6329H23.8922C21.6858 75.6329 19.9181 73.8765 19.9181 71.6642C19.9181 69.4706 21.6858 67.6965 23.8922 67.6965C26.0791 67.6965 27.8675 69.4706 27.8675 71.6642C27.8769 73.8468 26.1043 75.624 23.9084 75.6329ZM41.5419 33.6467H51.7584C52.0013 31.8108 52.1328 29.9406 52.1328 28.0387C52.1328 17.2943 48.1304 7.48723 41.5419 0C34.9534 7.48723 30.951 17.2943 30.951 28.0387C30.951 29.9406 31.0825 31.8108 31.3253 33.6467H41.5419ZM36.6562 49.2685C38.0643 51.6976 39.6973 53.982 41.5419 56.0783C43.3869 53.9818 45.0197 51.6976 46.4274 49.2685H41.5419H36.6562ZM26.1807 29.3922C19.5438 21.7913 10.6305 17.2971 1.30374 16.0221C1.25432 22.0377 2.57971 28.0752 5.30443 33.6469H29.4189C28.4361 32.1583 27.3542 30.7369 26.1807 29.3922ZM18.9728 49.2685C24.1313 52.7179 29.9519 54.8744 35.9472 55.6942C35.9649 53.5476 35.7996 51.3987 35.4674 49.2685H18.9728ZM56.9031 29.3922C55.7298 30.737 54.648 32.1583 53.6651 33.6467H77.7795C80.5041 28.0751 81.8295 22.0375 81.7802 16.0219C72.4533 17.2971 63.54 21.7913 56.9031 29.3922ZM47.1368 55.6942C53.1321 54.8746 58.9527 52.7179 64.111 49.2685H47.6164C47.2842 51.3987 47.1191 53.5476 47.1368 55.6942ZM41.5419 43.2602H11.9251C12.8364 44.2418 13.7963 45.1776 14.8012 46.0642H68.2826C69.2877 45.1778 70.2476 44.242 71.1587 43.2602H61.3503H41.5419ZM41.5419 36.851H7.06222C7.73571 37.9537 8.4628 39.0231 9.24091 40.0553H73.8431C74.6212 39.0231 75.3483 37.9537 76.0218 36.851H57.2337H41.5419Z" fill="white"/>
</svg>
