<svg width="86" height="58" viewBox="0 0 86 58" fill="none" xmlns="http://www.w3.org/2000/svg">
<path d="M79.2086 57.9661C75.197 57.9661 72.8176 55.9132 72.6356 52.9563H76.4714C76.4714 53.9419 77.0176 55.254 79.3907 55.3356C81.0355 55.3356 81.9458 54.35 81.9458 53.6092C81.7637 52.4603 80.301 52.3786 78.8445 52.1275C77.5282 51.9719 76.2384 51.6426 75.0087 51.1481C74.3834 50.798 73.8658 50.2839 73.5117 49.661C73.1576 49.038 72.9806 48.33 72.9997 47.6137C72.9997 44.9832 75.197 42.9303 79.0265 42.9303C82.6803 42.9303 85.0533 44.82 85.2291 47.6953H81.5816C81.5816 46.9608 81.3996 45.724 79.2086 45.724C77.7458 45.724 76.8356 45.9688 76.6535 47.036C76.6535 48.5176 79.7548 48.4362 82.1278 49.0075C84.3188 49.585 85.7816 50.9787 85.7816 52.9563C85.7816 56.5723 82.8624 57.9661 79.2086 57.9661Z" fill="white"/>
<path d="M8.78159 33.5731L21.7991 26L28.7816 38H11.2348" fill="white"/>
<path d="M35.7816 58V43V58Z" fill="white"/>
<path d="M35.7816 58V43" stroke="white" stroke-width="4"/>
<path d="M3.46543 50.4327C3.46543 52.7304 5.47436 54.62 7.65907 54.62C10.0384 54.62 11.859 52.7304 11.859 50.4327C11.859 48.2165 10.0384 46.2453 7.65907 46.2453C6.55983 46.2828 5.51573 46.7357 4.73742 47.5129C3.95911 48.29 3.50452 49.3335 3.46543 50.4327ZM7.47702 57.9913C3.46543 57.9913 0 54.62 0 50.4327C0 46.2453 3.46543 42.9556 7.47702 42.9556C9.12183 42.9556 10.5846 43.37 11.859 44.2678V43.1188H15.5128V57.6585H11.859V56.7544C10.7666 57.5769 9.12183 57.9913 7.47702 57.9913Z" fill="white"/>
<path d="M56.0507 38L38.7816 7.4039L51.1938 0L72.7816 38" fill="white"/>
<path d="M20.2589 50.4325C20.2589 52.7303 22.0858 54.6199 24.4588 54.6199C26.6436 54.6199 28.6588 52.7303 28.6588 50.4325C28.6181 49.3328 28.1622 48.2894 27.3829 47.5124C26.6036 46.7354 25.5587 46.2826 24.4588 46.2452C23.3486 46.2501 22.2851 46.6925 21.4989 47.4763C20.7127 48.2602 20.2672 49.3223 20.2589 50.4325ZM24.2768 57.9912C23.2872 57.9929 22.3072 57.798 21.3935 57.4178C20.4799 57.0376 19.6509 56.4797 18.9547 55.7765C18.2585 55.0732 17.7089 54.2387 17.3379 53.3213C16.9669 52.4039 16.7818 51.422 16.7935 50.4325C16.7935 46.2452 20.0768 42.9555 24.2768 42.9555C25.9153 42.9555 27.3781 43.3699 28.6588 44.2676V38.1089H32.3062V57.6584H28.6588V56.7543C27.3501 57.5854 25.8268 58.0155 24.2768 57.9912Z" fill="white"/>
<path d="M23.7816 20.4373L36.6376 13L50.7816 38.2781H37.3702V42H33.6998V38.2781" fill="white"/>
<path d="M83.4148 41.7061C82.9379 41.6922 82.4841 41.4978 82.145 41.1622C81.8059 40.8266 81.6068 40.3748 81.5879 39.8981C81.6068 39.4214 81.8059 38.9696 82.145 38.634C82.4841 38.2984 82.9379 38.1041 83.4148 38.0901C83.6549 38.0833 83.894 38.1253 84.1175 38.2135C84.341 38.3017 84.5442 38.4342 84.715 38.6032C84.8858 38.7722 85.0205 38.9742 85.111 39.1967C85.2015 39.4193 85.246 39.6579 85.2416 39.8981C85.246 40.1384 85.2015 40.377 85.111 40.5995C85.0205 40.8221 84.8858 41.024 84.715 41.1931C84.5442 41.3621 84.341 41.4947 84.1175 41.5829C83.894 41.6711 83.6549 41.713 83.4148 41.7061ZM83.4148 38.3413C82.4982 38.3413 81.952 39.0757 81.952 39.8981C81.952 40.7205 82.4982 41.4613 83.4148 41.4613C84.3251 41.4613 84.8712 40.7205 84.8712 39.8981C84.8712 39.0757 84.3251 38.3413 83.4148 38.3413Z" fill="white"/>
<path d="M83.7914 40.89L83.4273 40.0675H83.0632V40.89H82.787V38.9186H83.6094C83.7915 38.9186 84.1556 39.1698 84.1556 39.4962C84.1619 39.6175 84.1301 39.7377 84.0648 39.8401C83.9996 39.9425 83.904 40.022 83.7914 40.0675L84.1556 40.89M83.4273 39.1698H83.0632V39.8227H83.4273C83.7915 39.8227 83.7914 39.7411 83.7914 39.4962C83.7914 39.3267 83.7915 39.1698 83.4273 39.1698ZM59.3076 50.4324C59.3076 52.7301 61.1345 54.6197 63.5075 54.6197C65.6985 54.6197 67.7012 52.7301 67.7012 50.4324C67.6635 49.3327 67.2094 48.2883 66.4308 47.5109C65.6522 46.7334 64.6072 46.2811 63.5075 46.2451C62.3973 46.25 61.3338 46.6923 60.5476 47.4762C59.7614 48.2601 59.3158 49.3222 59.3076 50.4324ZM63.3192 57.9911C62.3301 57.992 61.3507 57.7965 60.4379 57.4159C59.525 57.0354 58.6967 56.4772 58.0012 55.774C57.3056 55.0709 56.7566 54.2368 56.386 53.3198C56.0154 52.4028 55.8305 51.4214 55.8422 50.4324C55.8422 46.245 59.1255 42.9553 63.3192 42.9553C64.964 42.9553 66.4267 43.3698 67.7012 44.2675V43.1186H71.1729V57.6583H67.7012V56.7542C66.3933 57.587 64.8695 58.0172 63.3192 57.9911ZM42.5267 50.4324C42.5267 52.7301 44.5356 54.6197 46.7266 54.6197C49.0997 54.6197 50.9265 52.7301 50.9265 50.4324C50.9183 49.3222 50.4727 48.2601 49.6865 47.4762C48.9003 46.6923 47.8368 46.25 46.7266 46.2451C45.6263 46.281 44.5806 46.7332 43.801 47.5105C43.0213 48.2878 42.5659 49.3322 42.5267 50.4324ZM50.9265 38.1088H54.574V57.6583H50.9265V56.7542C49.6964 57.6082 48.2233 58.0421 46.7266 57.9911C42.5267 57.9911 39.0612 54.6198 39.0612 50.4324C39.0612 46.245 42.5267 42.9553 46.7266 42.9553C48.3651 42.9553 49.8279 43.3698 50.9265 44.2675V38.1088Z" fill="white"/>
</svg>
