<svg width="46" height="45" viewBox="0 0 46 45" fill="none" xmlns="http://www.w3.org/2000/svg">
<path fill-rule="evenodd" clip-rule="evenodd" d="M14.0446 0.134585C16.4373 0.0249185 17.1999 0 23.2924 0C29.386 0 30.1474 0.0261624 32.5387 0.134585C34.9276 0.243007 36.5589 0.623086 37.9857 1.17762C39.4823 1.74106 40.8379 2.62387 41.9584 3.76464C43.0994 4.88502 43.9823 6.24078 44.5455 7.73738C45.1 9.16422 45.4789 10.7954 45.5886 13.1831C45.6983 15.5757 45.7231 16.3383 45.7231 22.4308C45.7231 28.5232 45.697 29.2858 45.5886 31.6786C45.4801 34.066 45.1 35.6974 44.5455 37.1242C43.9723 38.5985 43.2046 39.8507 41.9584 41.0969C40.8381 42.2378 39.4823 43.1207 37.9857 43.684C36.5589 44.2384 34.9276 44.6173 32.5402 44.727C30.1474 44.8367 29.3848 44.8616 23.2924 44.8616C17.1999 44.8616 16.4373 44.8355 14.0446 44.727C11.657 44.6185 10.0258 44.2384 8.59895 43.684C7.12474 43.1107 5.87236 42.343 4.62621 41.0969C3.48524 39.9766 2.60236 38.6207 2.03919 37.1242C1.48466 35.6974 1.10582 34.066 0.996157 31.6786C0.886491 29.2858 0.861572 28.5244 0.861572 22.4308C0.861572 16.3371 0.887735 15.5757 0.996157 13.1843C1.10458 10.7954 1.48466 9.16422 2.03919 7.73738C2.60263 6.24088 3.48544 4.88518 4.62621 3.76464C5.74657 2.62367 7.10233 1.74079 8.59895 1.17762C10.0258 0.623086 11.657 0.244251 14.0446 0.134585ZM32.3568 4.17213C29.9916 4.06495 29.2814 4.04127 23.2924 4.04127C17.3033 4.04127 16.593 4.06495 14.2278 4.17213C12.0408 4.27182 10.8532 4.63693 10.0632 4.94474C9.01641 5.35099 8.26871 5.83698 7.48363 6.62206C6.69982 7.40713 6.21256 8.15483 5.80632 9.2016C5.49851 9.99167 5.13339 11.1793 5.0337 13.3663C4.92652 15.7315 4.90285 16.4418 4.90285 22.4308C4.90285 28.4198 4.92652 29.13 5.0337 31.4953C5.13339 33.6823 5.49851 34.8699 5.80632 35.6601C6.16566 36.6344 6.73883 37.5157 7.48363 38.2396C8.20733 38.9843 9.0888 39.5575 10.0632 39.9168C10.8532 40.2247 12.0408 40.5897 14.2278 40.6894C16.593 40.7967 17.3021 40.8204 23.2924 40.8204C29.2826 40.8204 29.9916 40.7967 32.3568 40.6894C34.5438 40.5897 35.7315 40.2247 36.5216 39.9168C37.5683 39.5106 38.3161 39.0247 39.1012 38.2396C39.8459 37.5159 40.4191 36.6344 40.7784 35.6601C41.0863 34.8699 41.4513 33.6823 41.551 31.4953C41.6583 29.13 41.6819 28.4198 41.6819 22.4308C41.6819 16.4418 41.6583 15.7315 41.551 13.3663C41.4513 11.1793 41.0863 9.99167 40.7784 9.2016C40.3722 8.15483 39.8862 7.40713 39.1012 6.62206C38.3161 5.83824 37.5683 5.35099 36.5216 4.94474C35.7315 4.63693 34.5438 4.27182 32.3568 4.17213ZM20.4284 29.3454C21.3364 29.7216 22.3095 29.9151 23.2924 29.9151C25.2775 29.9151 27.181 29.1266 28.5846 27.723C29.9884 26.3195 30.7769 24.4157 30.7769 22.4308C30.7769 20.4459 29.9884 18.5421 28.5846 17.1385C27.181 15.7349 25.2775 14.9464 23.2924 14.9464C22.3095 14.9464 21.3364 15.14 20.4284 15.5161C19.5201 15.8922 18.6951 16.4435 18.0001 17.1385C17.3052 17.8335 16.7538 18.6585 16.3777 19.5666C16.0016 20.4746 15.808 21.4479 15.808 22.4308C15.808 23.4137 16.0016 24.387 16.3777 25.295C16.7538 26.203 17.3052 27.0281 18.0001 27.723C18.6951 28.418 19.5201 28.9694 20.4284 29.3454ZM15.1399 14.2782C17.3021 12.1161 20.2346 10.9013 23.2924 10.9013C26.3503 10.9013 29.2828 12.1161 31.4449 14.2782C33.6071 16.4404 34.8218 19.3731 34.8218 22.4308C34.8218 25.4885 33.6071 28.421 31.4449 30.5834C29.2828 32.7455 26.3503 33.9602 23.2924 33.9602C20.2346 33.9602 17.3021 32.7455 15.1399 30.5834C12.9777 28.421 11.763 25.4885 11.763 22.4308C11.763 19.3731 12.9777 16.4404 15.1399 14.2782ZM37.3783 12.6191C37.8893 12.108 38.1764 11.4148 38.1764 10.692C38.1764 9.96918 37.8893 9.27599 37.3783 8.76489C36.8671 8.25379 36.174 7.96666 35.4511 7.96666C34.7284 7.96666 34.0351 8.25379 33.5241 8.76489C33.0128 9.27599 32.7257 9.96918 32.7257 10.692C32.7257 11.4148 33.0128 12.108 33.5241 12.6191C34.0351 13.1302 34.7284 13.4173 35.4511 13.4173C36.174 13.4173 36.8671 13.1302 37.3783 12.6191Z" fill="white"/>
</svg>
