<svg width="45" height="45" viewBox="0 0 45 45" fill="none" xmlns="http://www.w3.org/2000/svg">
<path d="M44.8616 22.4308C44.8616 10.0392 34.814 0 22.4308 0C10.0392 0 0 10.0392 0 22.4308C0 33.6237 8.19985 42.9045 18.926 44.5854V28.9161H13.23V22.4322H18.926V17.4876C18.926 11.8673 22.2696 8.76343 27.395 8.76343C29.8498 8.76343 32.4195 9.20083 32.4195 9.20083V14.7202H29.5862C26.8048 14.7202 25.9356 16.4516 25.9356 18.225V22.4308H32.1559L31.1564 28.9147H25.9356V44.584C36.6533 42.9031 44.8616 33.6223 44.8616 22.4294V22.4308Z" fill="white"/>
</svg>
